<svg width="1024" height="1024" viewBox="0 0 1024 1024" fill="none" xmlns="http://www.w3.org/2000/svg">
<path d="M591.267 813.869V591.532C591.267 583.961 581.725 580.626 577.009 586.549L519.199 659.152C516.006 663.163 509.915 663.176 506.704 659.179L448.21 586.364C443.479 580.475 433.973 583.82 433.973 591.374V702.633C433.973 711.47 426.809 718.633 417.973 718.633H322.862C314.026 718.633 306.862 711.469 306.862 702.633V210C306.862 205.582 303.28 202 298.862 202H242C219.909 202 202 219.909 202 242V781.869C202 803.961 219.909 821.869 242 821.869H583.267C587.685 821.869 591.267 818.287 591.267 813.869Z" fill="black"/>
<path d="M822 781.869V242C822 219.909 804.091 202 782 202H424.113C415.075 202 407.797 209.458 407.922 218.494C408.163 235.775 408.331 266.357 407.591 308.927L503.549 451.915C507.533 457.851 516.278 457.811 520.207 451.839L610.506 314.584C613.466 310.086 618.489 307.378 623.873 307.378H703.56C712.409 307.378 719.577 314.561 719.559 323.41L718.575 813.853C718.566 818.278 722.15 821.869 726.575 821.869H781.999C804.091 821.869 822 803.961 822 781.869Z" fill="#1581DE"/>
</svg>
